<svg version="1.1" xmlns="http://www.w3.org/2000/svg" viewBox="0 0 271 64">
<title>Creative Commons Attribution Non-Commercial Share-Alike</title>
<g>
	<circle fill="#FFFFFF" cx="32.285" cy="32.001" r="28.836"/>
	<path d="M31.941,0c8.951,0,16.572,3.125,22.856,9.372c3.009,3.009,5.295,6.448,6.856,10.314c1.562,3.867,2.345,7.971,2.345,12.314
		c0,4.381-0.772,8.486-2.313,12.313c-1.543,3.828-3.82,7.211-6.828,10.144c-3.123,3.085-6.666,5.448-10.629,7.086
		c-3.961,1.638-8.058,2.457-12.285,2.457c-4.229,0-8.276-0.808-12.144-2.429c-3.866-1.618-7.333-3.961-10.4-7.027
		S4,48.02,2.4,44.171C0.8,40.323,0,36.268,0,32c0-4.229,0.809-8.295,2.428-12.2C4.047,15.895,6.4,12.4,9.485,9.314
		C15.58,3.106,23.065,0,31.941,0z M32.057,5.772c-7.313,0-13.467,2.553-18.458,7.657c-2.515,2.553-4.448,5.419-5.8,8.6
		C6.445,25.21,5.77,28.534,5.77,32.001c0,3.429,0.675,6.733,2.029,9.913c1.353,3.184,3.285,6.021,5.8,8.516
		c2.514,2.496,5.351,4.399,8.515,5.715c3.161,1.314,6.476,1.972,9.943,1.972c3.428,0,6.75-0.665,9.973-1.999
		c3.22-1.335,6.121-3.258,8.714-5.771c4.989-4.876,7.483-10.99,7.483-18.344c0-3.543-0.647-6.895-1.942-10.057
		c-1.293-3.162-3.181-5.98-5.654-8.458C45.484,8.344,39.295,5.772,32.057,5.772z M31.656,26.687l-4.287,2.229
		c-0.458-0.951-1.019-1.619-1.685-2c-0.667-0.38-1.286-0.571-1.858-0.571c-2.856,0-4.286,1.885-4.286,5.657
		c0,1.714,0.362,3.084,1.085,4.113c0.724,1.029,1.791,1.544,3.201,1.544c1.867,0,3.181-0.915,3.943-2.743l3.942,2
		c-0.838,1.563-2,2.791-3.485,3.686c-1.484,0.896-3.124,1.344-4.915,1.344c-2.857,0-5.163-0.875-6.915-2.629
		c-1.752-1.752-2.628-4.19-2.628-7.313c0-3.048,0.886-5.466,2.657-7.257c1.771-1.79,4.009-2.686,6.715-2.686
		C27.104,22.058,29.941,23.601,31.656,26.687z M50.113,26.687l-4.229,2.229c-0.457-0.951-1.021-1.619-1.686-2
		c-0.669-0.38-1.308-0.571-1.914-0.571c-2.857,0-4.287,1.885-4.287,5.657c0,1.714,0.362,3.084,1.086,4.113s1.789,1.544,3.201,1.544
		c1.864,0,3.18-0.915,3.94-2.743l4,2c-0.875,1.563-2.057,2.791-3.541,3.686c-1.485,0.896-3.104,1.344-4.856,1.344
		c-2.896,0-5.209-0.875-6.94-2.629c-1.736-1.752-2.603-4.19-2.603-7.313c0-3.048,0.885-5.466,2.657-7.257
		c1.771-1.79,4.009-2.686,6.713-2.686C45.617,22.058,48.438,23.601,50.113,26.687z"/>
</g>
<g>
	<circle fill="#FFFFFF" cx="100.637" cy="32.306" r="28.276"/>
	<g>
		<path d="M100.443,0c8.988,0,16.57,3.085,22.742,9.257c6.207,6.21,9.314,13.791,9.314,22.743c0,8.991-3.049,16.477-9.145,22.456
			C116.879,60.818,109.242,64,100.443,64c-8.649,0-16.153-3.145-22.514-9.43C71.645,48.284,68.5,40.762,68.5,32
			c0-8.761,3.145-16.342,9.43-22.742C84.102,3.085,91.604,0,100.443,0z M100.557,5.772c-7.275,0-13.428,2.553-18.457,7.657
			c-5.22,5.334-7.828,11.525-7.828,18.572c0,7.086,2.59,13.22,7.77,18.397c5.182,5.183,11.352,7.771,18.514,7.771
			c7.123,0,13.334-2.607,18.629-7.828c5.029-4.838,7.543-10.951,7.543-18.343c0-7.276-2.553-13.465-7.656-18.571
			C113.967,8.324,107.795,5.772,100.557,5.772z M109.129,24.057v13.085h-3.656v15.541h-9.943V37.143h-3.656V24.057
			c0-0.572,0.2-1.057,0.6-1.457c0.4-0.399,0.887-0.6,1.457-0.6h13.144c0.532,0,1.01,0.2,1.428,0.6
			C108.918,23,109.129,23.486,109.129,24.057z M96.042,15.829c0-3.008,1.485-4.514,4.458-4.514s4.457,1.504,4.457,4.514
			c0,2.971-1.486,4.457-4.457,4.457S96.042,18.8,96.042,15.829z"/>
	</g>
</g>
<g>
	<circle fill="#FFFFFF" cx="169.471" cy="32.236" r="29.471"/>
	<g>
		<path d="M169.441,0c8.99,0,16.572,3.085,22.744,9.256C198.393,15.428,201.5,23.009,201.5,32c0,8.992-3.048,16.477-9.145,22.458
			C185.88,60.82,178.241,64,169.441,64c-8.686,0-16.189-3.162-22.512-9.484c-6.285-6.287-9.43-13.791-9.43-22.516
			c0-8.762,3.145-16.343,9.43-22.743C153.1,3.086,160.604,0,169.441,0z M144.7,23.372c-0.952,2.628-1.429,5.505-1.429,8.629
			c0,7.086,2.59,13.22,7.77,18.399c5.219,5.145,11.391,7.716,18.514,7.716c7.201,0,13.409-2.608,18.631-7.829
			c1.866-1.79,3.332-3.657,4.397-5.602l-12.056-5.371c-0.422,2.02-1.439,3.666-3.057,4.941c-1.623,1.276-3.535,2.012-5.744,2.2
			v4.915h-3.715v-4.915c-3.543-0.036-6.781-1.312-9.714-3.827l4.4-4.457c2.094,1.942,4.476,2.913,7.143,2.913
			c1.104,0,2.048-0.246,2.83-0.743c0.78-0.494,1.172-1.312,1.172-2.457c0-0.801-0.286-1.447-0.858-1.943l-3.084-1.314l-3.771-1.715
			l-5.086-2.229L144.7,23.372z M169.557,5.714c-7.275,0-13.428,2.571-18.457,7.714c-1.258,1.258-2.438,2.687-3.543,4.287
			l12.229,5.485c0.532-1.676,1.542-3.019,3.028-4.028c1.484-1.009,3.219-1.571,5.201-1.686v-4.915h3.715v4.915
			c2.934,0.153,5.6,1.143,8,2.971l-4.172,4.286c-1.793-1.257-3.619-1.885-5.486-1.885c-0.991,0-1.877,0.191-2.656,0.571
			c-0.781,0.381-1.172,1.029-1.172,1.943c0,0.267,0.095,0.533,0.285,0.8l4.057,1.83l2.801,1.257l5.143,2.285l16.397,7.313
			c0.535-2.248,0.802-4.532,0.802-6.856c0-7.353-2.553-13.543-7.656-18.573C183.005,8.285,176.831,5.714,169.557,5.714z"/>
	</g>
</g>
<g>
	<circle fill="#FFFFFF" cx="238.443" cy="32.131" r="29.105"/>
	<g>
		<path d="M238.943,0c8.951,0,16.531,3.105,22.742,9.315C267.893,15.487,271,23.048,271,32c0,8.954-3.049,16.457-9.145,22.514
			C255.418,60.838,247.779,64,238.943,64c-8.649,0-16.153-3.143-22.514-9.43c-6.285-6.284-9.43-13.807-9.43-22.569
			c0-8.723,3.145-16.285,9.43-22.685C222.639,3.105,230.143,0,238.943,0z M239.057,5.772c-7.275,0-13.428,2.572-18.457,7.715
			c-5.22,5.296-7.828,11.467-7.828,18.513c0,7.125,2.59,13.257,7.77,18.4c5.182,5.182,11.352,7.771,18.514,7.771
			c7.123,0,13.334-2.608,18.629-7.828c5.029-4.876,7.543-10.989,7.543-18.343c0-7.313-2.553-13.485-7.656-18.513
			C252.504,8.342,246.332,5.772,239.057,5.772z M224.771,27.485c0.608-3.924,2.188-6.962,4.742-9.114
			c2.551-2.152,5.655-3.228,9.313-3.228c5.026,0,9.028,1.62,12,4.856c2.971,3.238,4.457,7.391,4.457,12.457
			c0,4.915-1.543,9-4.627,12.256c-3.089,3.256-7.087,4.886-12.003,4.886c-3.618,0-6.742-1.084-9.37-3.257
			c-2.63-2.172-4.209-5.257-4.743-9.257h8.059c0.19,3.887,2.533,5.829,7.029,5.829c2.246,0,4.057-0.972,5.428-2.914
			c1.373-1.942,2.06-4.534,2.06-7.771c0-3.391-0.63-5.971-1.886-7.743c-1.258-1.771-3.065-2.657-5.43-2.657
			c-4.268,0-6.667,1.885-7.199,5.656h2.342l-6.342,6.343l-6.343-6.343L224.771,27.485L224.771,27.485z"/>
	</g>
</g>
</svg>
