<svg viewBox="0 0 72 48" version="1.1" xmlns="http://www.w3.org/2000/svg" style="fill-rule:evenodd;clip-rule:evenodd;stroke-linejoin:round;stroke-miterlimit:2;">
    <path id="path1599" d="M2.032,8.005l9.532,32.17l0.396,0l5.957,-19.935l5.959,19.935l0.397,0l7.142,-24.105c1.364,-4.604 0.688,-4.094 4.758,-4.094l3.358,0l-6.637,11.52l2.664,-0c1.721,-0 3.534,0.621 4.488,1.865c0.134,0.173 0.254,0.36 0.365,0.557c0.026,0.045 0.05,0.092 0.075,0.138c0.104,0.199 0.202,0.404 0.287,0.625c0.334,0.878 0.504,1.933 0.504,3.168c-0,1.748 -0.385,3.243 -1.153,4.488c-0.208,0.338 -0.43,0.626 -0.664,0.872c-0.149,0.157 -0.305,0.293 -0.465,0.414c-0.013,0.01 -0.027,0.019 -0.041,0.029c-0.163,0.119 -0.328,0.22 -0.502,0.301c-0.158,0.073 -0.323,0.125 -0.49,0.166c-0.043,0.01 -0.086,0.019 -0.129,0.027c-0.172,0.033 -0.346,0.057 -0.527,0.057c-0.008,-0 -0.015,-0.002 -0.024,-0.002c-0.008,-0 -0.015,-0.002 -0.023,-0.002c-0.004,-0 -0.008,-0.002 -0.012,-0.002c-0.009,-0 -0.018,-0.002 -0.027,-0.002c-0.238,-0.005 -0.471,-0.023 -0.695,-0.063c-0.002,-0 -0.003,0 -0.004,0c-0.062,-0.011 -0.118,-0.035 -0.178,-0.049c-0.013,-0.002 -0.025,-0.006 -0.037,-0.009c-0.015,-0.004 -0.03,-0.01 -0.045,-0.014c-0.153,-0.036 -0.306,-0.07 -0.451,-0.125c-0.228,-0.087 -0.447,-0.196 -0.658,-0.326c-0.212,-0.131 -0.414,-0.283 -0.608,-0.457c-0.414,-0.45 -0.726,-0.962 -1.056,-1.461l-4.055,0c0.275,0.817 0.616,1.556 1.01,2.234l-0.012,0.022c0.042,0.077 0.099,0.149 0.146,0.224c0.28,0.455 0.582,0.887 0.918,1.276c0.3,0.346 0.621,0.666 0.965,0.961c0.171,0.146 0.347,0.284 0.526,0.412l0.002,0.002c0.178,0.128 0.359,0.246 0.544,0.355c0.116,0.068 0.234,0.127 0.352,0.188c0.016,0.008 0.031,0.017 0.047,0.025c0.057,0.032 0.113,0.064 0.172,0.092c0.002,0.001 0.004,0.001 0.006,0.002c0.192,0.091 0.386,0.173 0.586,0.246c0.002,0.001 0.005,0.003 0.007,0.004l0.002,0c0.198,0.072 0.399,0.135 0.604,0.19c0.004,0.001 0.008,0.002 0.012,0.003l0.002,0c0.204,0.054 0.412,0.099 0.623,0.135c0.005,0.001 0.01,0.001 0.015,0.002c0.189,0.032 0.38,0.054 0.575,0.072c0.004,0.001 0.009,0.002 0.013,0.002c0.007,0.002 0.014,0.004 0.022,0.004c0.011,0.002 0.022,0.003 0.033,0.004l0.002,0c0.005,0.001 0.01,0.002 0.016,0.002l0.002,0c0.116,0.01 0.238,0.009 0.357,0.014c0.025,0.001 0.049,0.003 0.074,0.004c0.016,0.001 0.031,0.001 0.047,0.002c0.06,0.003 0.12,0.008 0.182,0.008c0.008,-0 0.015,-0 0.023,-0c0.178,-0 0.348,-0.017 0.522,-0.028l-0,-0.01c0.186,-0.013 0.378,-0.015 0.56,-0.039c0.026,-0.003 0.051,-0.007 0.076,-0.011c0.343,-0.048 0.674,-0.12 0.996,-0.211c1.503,-0.425 2.794,-1.31 3.862,-2.68c1.549,-1.986 2.324,-4.435 2.324,-7.348c-0,-2.356 -0.531,-4.407 -1.59,-6.154c-0.804,-1.327 -1.899,-2.339 -3.283,-3.041c-0.043,-0.022 -0.089,-0.039 -0.133,-0.06c-0.179,-0.087 -0.358,-0.174 -0.547,-0.25c-0.233,-0.096 -0.474,-0.184 -0.722,-0.264c2.324,-4.026 4.69,-8.028 6.978,-12.074l-12.543,-0c-3.624,-0 -4.353,0.617 -5.611,4.896l-4.319,14.684l-5.76,-19.581l-4.168,0l0.954,3.2c0.794,2.664 0.723,3.972 -0.022,6.494l-2.92,9.887l-5.758,-19.581l-4.17,0Z" style="fill:#fff;fill-rule:nonzero;"/>
    <path id="path6" d="M66.92,8.006c-0.819,-0 -1.554,0.295 -2.111,0.861c-0.591,0.6 -0.92,1.376 -0.92,2.178c0,0.802 0.313,1.545 0.887,2.128c0.583,0.591 1.334,0.912 2.145,0.912c0.793,0 1.562,-0.321 2.161,-0.903c0.574,-0.557 0.886,-1.301 0.886,-2.137c0,-0.811 -0.321,-1.57 -0.878,-2.136c-0.583,-0.591 -1.343,-0.903 -2.17,-0.903Zm2.643,3.065c0,0.701 -0.271,1.351 -0.769,1.832c-0.523,0.507 -1.173,0.777 -1.891,0.777c-0.675,-0 -1.342,-0.278 -1.84,-0.785c-0.498,-0.506 -0.777,-1.157 -0.777,-1.849c0,-0.692 0.287,-1.368 0.802,-1.891c0.481,-0.49 1.131,-0.751 1.84,-0.751c0.726,-0 1.376,0.271 1.883,0.785c0.49,0.489 0.752,1.148 0.752,1.882Zm-2.558,-1.807l-1.3,-0l0,3.445l0.65,-0l0,-1.469l0.642,-0l0.701,1.469l0.726,-0l-0.769,-1.571c0.498,-0.101 0.785,-0.439 0.785,-0.928c0,-0.625 -0.473,-0.946 -1.435,-0.946Zm-0.119,0.422c0.608,-0 0.886,0.169 0.886,0.591c0,0.405 -0.278,0.549 -0.87,0.549l-0.549,0l0,-1.14l0.533,-0Z" style="fill:#fff;fill-rule:nonzero;"/>
    <path id="path8" d="M61.807,7.825l0.338,2.053c0.315,1.917 -0.005,2.711 -0.858,4.342l-1.195,2.287c-0,0 -0.918,-1.941 -2.443,-3.015c-1.285,-0.905 -2.122,-1.102 -3.431,-0.832c-1.681,0.347 -3.587,2.357 -4.419,4.835c-0.995,2.965 -1.005,4.4 -1.04,5.718c-0.056,2.113 0.277,3.362 0.277,3.362c0,0 -1.451,-2.686 -1.438,-6.62c0.009,-2.808 0.451,-5.354 1.75,-7.867c1.143,-2.209 2.842,-3.535 4.35,-3.691c1.559,-0.161 2.791,0.59 3.743,1.404c0.999,0.854 2.01,2.72 2.01,2.72l2.356,-4.696Z" style="fill:#fff;fill-rule:nonzero;"/>
    <path id="path10" d="M62.102,31.063c-0,-0 -1.057,1.889 -1.715,2.617c-0.659,0.728 -1.837,2.01 -3.292,2.651c-1.456,0.641 -2.218,0.762 -3.656,0.624c-1.437,-0.138 -2.773,-0.97 -3.241,-1.317c-0.468,-0.347 -1.664,-1.369 -2.339,-2.322c-0.676,-0.954 -1.733,-2.859 -1.733,-2.859c-0,0 0.589,1.911 0.958,2.721c0.212,0.466 0.864,1.894 1.79,3.136c0.862,1.159 2.539,3.154 5.086,3.604c2.547,0.451 4.297,-0.693 4.73,-0.971c0.433,-0.277 1.432,-0.93 2.01,-1.548c0.603,-0.645 0.923,-1.108 1.325,-1.921c0.292,-0.591 0.545,-1.978 0.382,-2.829l-0.305,-1.586Z" style="fill:#fff;fill-rule:nonzero;"/>
</svg>
